<?xml version="1.0" encoding="UTF-8" standalone="no"?>
<!-- Generator: Adobe Illustrator 25.0.0, SVG Export Plug-In . SVG Version: 6.00 Build 0)  -->

<svg
   xmlns:dc="http://purl.org/dc/elements/1.1/"
   xmlns:cc="http://creativecommons.org/ns#"
   xmlns:rdf="http://www.w3.org/1999/02/22-rdf-syntax-ns#"
   xmlns:svg="http://www.w3.org/2000/svg"
   xmlns="http://www.w3.org/2000/svg"
   xmlns:sodipodi="http://sodipodi.sourceforge.net/DTD/sodipodi-0.dtd"
   xmlns:inkscape="http://www.inkscape.org/namespaces/inkscape"
   version="1.1"
   x="0px"
   y="0px"
   viewBox="0 0 200 69.999998"
   xml:space="preserve"
   id="svg42"
   sodipodi:docname="eduid-logo_web.svg"
   width="200"
   height="70"
   inkscape:version="0.92.2 (5c3e80d, 2017-08-06)"><metadata
     id="metadata48"><rdf:RDF><cc:Work
         rdf:about=""><dc:format>image/svg+xml</dc:format><dc:type
           rdf:resource="http://purl.org/dc/dcmitype/StillImage" /><dc:title></dc:title></cc:Work></rdf:RDF></metadata><defs
     id="defs46" /><sodipodi:namedview
     pagecolor="#ffffff"
     bordercolor="#666666"
     borderopacity="1"
     objecttolerance="10"
     gridtolerance="10"
     guidetolerance="10"
     inkscape:pageopacity="0"
     inkscape:pageshadow="2"
     inkscape:window-width="1920"
     inkscape:window-height="1001"
     id="namedview44"
     showgrid="false"
     inkscape:zoom="2.1368323"
     inkscape:cx="213.39999"
     inkscape:cy="100.55"
     inkscape:window-x="-9"
     inkscape:window-y="-9"
     inkscape:window-maximized="1"
     inkscape:current-layer="svg42" /><style
     type="text/css"
     id="style2">
	.st0{fill:none;}
	.st1{fill:#E60000;}
	.st2{fill:#5A5A5A;}
</style><g
     id="eduid.cz"
     transform="matrix(0.56018386,0,0,0.56018386,-18.730969,-21.522551)"><polygon
       class="st1"
       points="136.1,150.4 136.1,140.5 145.9,140.5 145.9,150.4 "
       id="polygon13"
       style="fill:#e60000" /><polygon
       class="st1"
       points="120.2,160.3 130.1,160.3 130.1,150.4 120.2,150.4 "
       id="polygon15"
       style="fill:#e60000" /><polygon
       class="st1"
       points="104.4,150.4 104.4,140.5 114.2,140.5 114.2,150.4 "
       id="polygon17"
       style="fill:#e60000" /><polygon
       class="st1"
       points="88.5,160.3 98.4,160.3 98.4,150.4 88.5,150.4 "
       id="polygon19"
       style="fill:#e60000" /><polygon
       class="st1"
       points="72.7,160.3 82.5,160.3 82.5,150.4 72.7,150.4 "
       id="polygon21"
       style="fill:#e60000" /><polygon
       class="st1"
       points="41,150.4 41,140.5 50.8,140.5 50.8,150.4 "
       id="polygon23"
       style="fill:#e60000" /><polygon
       class="st1"
       points="56.8,150.4 56.8,140.5 66.7,140.5 66.7,150.4 "
       id="polygon25"
       style="fill:#e60000" /><path
       class="st1"
       d="m 386,50.7 v -4.1 h -4.9 v -5.1 h -5 v 5.1 h -3.4 v 4.1 h 3.4 v 9.1 c 0,1 0.1,1.9 0.3,2.7 0.2,0.8 0.5,1.6 1,2.3 0.5,0.6 1.2,1.2 2,1.5 0.8,0.4 1.9,0.6 3.2,0.6 0.5,0 1.1,0 1.7,-0.1 0.6,-0.1 1.1,-0.2 1.6,-0.4 h 0.1 l -0.2,-4.1 -0.1,0.1 c -0.3,0.1 -0.6,0.2 -1,0.3 -0.4,0.1 -0.7,0.1 -1.1,0.1 -1.1,0 -1.7,-0.3 -2,-0.8 -0.3,-0.6 -0.5,-1.3 -0.5,-2.1 v -9.1 h 4.9 z"
       id="path27"
       inkscape:connector-curvature="0"
       style="fill:#e60000" /><path
       class="st1"
       d="m 293.8,54.4 c 0.1,-1.3 0.7,-2.4 1.7,-3.3 1,-0.9 2.3,-1.3 3.7,-1.3 0.8,0 1.5,0.1 2,0.4 0.6,0.3 1.1,0.6 1.4,1 0.4,0.4 0.6,0.9 0.8,1.5 0.2,0.5 0.3,1.1 0.3,1.7 z m 12.3,-5.7 c -0.9,-0.9 -1.9,-1.6 -3.1,-2 -1.2,-0.5 -2.5,-0.7 -3.8,-0.7 -1.5,0 -2.9,0.3 -4.2,0.8 -1.3,0.5 -2.4,1.2 -3.3,2.2 -0.9,0.9 -1.7,2 -2.2,3.4 -0.5,1.3 -0.8,2.8 -0.8,4.4 0,1.6 0.3,3.1 0.8,4.4 0.5,1.3 1.3,2.4 2.2,3.3 0.9,0.9 2.1,1.6 3.4,2 1.3,0.5 2.7,0.7 4.3,0.7 3.7,0 6.6,-1.3 8.5,-4 l 0.1,-0.1 -3.4,-2.7 -0.1,0.1 c -0.5,0.8 -1.2,1.4 -2.1,1.8 -0.8,0.4 -1.9,0.7 -3.1,0.7 -0.7,0 -1.4,-0.1 -2,-0.4 -0.6,-0.2 -1.2,-0.6 -1.7,-1 -0.5,-0.4 -0.9,-0.9 -1.2,-1.5 -0.3,-0.5 -0.5,-1.2 -0.5,-1.8 h 15 v -0.1 c 0,-0.2 0,-0.4 0,-0.7 v -0.7 c 0,-1.8 -0.2,-3.4 -0.7,-4.7 -0.5,-1.4 -1.2,-2.5 -2.1,-3.4"
       id="path29"
       inkscape:connector-curvature="0"
       style="fill:#e60000" /><path
       class="st1"
       d="m 276.6,52.2 c 0.4,-0.6 1,-1.1 1.7,-1.4 0.7,-0.4 1.5,-0.5 2.3,-0.5 0.8,0 1.5,0.2 2.3,0.5 0.7,0.4 1.3,0.8 1.7,1.3 l 0.1,0.1 3.4,-3 0.1,-0.1 -0.1,-0.1 c -0.8,-1 -1.9,-1.7 -3.3,-2.3 -1.4,-0.5 -2.8,-0.8 -4.2,-0.8 -1.4,0 -2.8,0.2 -4.1,0.7 -1.3,0.5 -2.4,1.2 -3.4,2.1 -1,0.9 -1.7,2 -2.3,3.3 -0.6,1.3 -0.8,2.8 -0.8,4.3 0,1.6 0.3,3.1 0.8,4.4 0.6,1.3 1.3,2.4 2.3,3.3 1,0.9 2.1,1.6 3.4,2.1 1.3,0.5 2.7,0.7 4.2,0.7 1.5,0 2.9,-0.2 4.2,-0.7 1.3,-0.5 2.3,-1.2 3.2,-2.1 l 0.1,-0.1 -3.1,-3.2 -0.1,-0.1 -0.1,0.1 c -0.5,0.6 -1.1,1 -1.8,1.3 -0.7,0.3 -1.5,0.4 -2.3,0.4 -0.9,0 -1.7,-0.2 -2.4,-0.5 -0.7,-0.4 -1.3,-0.8 -1.7,-1.4 -0.5,-0.6 -0.8,-1.3 -1,-2 -0.2,-0.7 -0.3,-1.5 -0.3,-2.3 0,-0.8 0.1,-1.5 0.3,-2.3 0.1,-0.4 0.4,-1.1 0.9,-1.7"
       id="path31"
       inkscape:connector-curvature="0"
       style="fill:#e60000" /><path
       class="st1"
       d="m 346.6,48.5 c -0.6,-0.7 -1.4,-1.4 -2.3,-1.8 -0.9,-0.5 -2.1,-0.7 -3.3,-0.7 -1.5,0 -2.8,0.4 -3.9,1.1 -1,0.7 -1.8,1.5 -2.2,2.4 v -3 H 330 v 19.9 h 5.1 V 55.5 c 0,-0.6 0.1,-1.3 0.3,-1.9 0.2,-0.6 0.5,-1.2 0.8,-1.7 0.4,-0.5 0.8,-0.9 1.4,-1.2 0.6,-0.3 1.2,-0.5 2,-0.5 0.8,0 1.4,0.2 1.9,0.5 0.5,0.3 0.8,0.7 1.1,1.2 0.3,0.5 0.4,1.1 0.5,1.7 0.1,0.6 0.1,1.2 0.1,1.8 v 11 h 5.1 V 54 c 0,-1 -0.1,-2 -0.4,-3 -0.2,-0.9 -0.7,-1.8 -1.3,-2.5"
       id="path33"
       inkscape:connector-curvature="0"
       style="fill:#e60000" /><path
       class="st1"
       d="m 317.5,50.3 c 0.6,-0.3 1.4,-0.5 2.1,-0.5 0.9,0 1.7,0.2 2.5,0.6 0.7,0.4 1.3,0.9 1.8,1.5 l 0.1,0.1 3.3,-3 -0.1,-0.1 c -0.8,-1 -1.9,-1.8 -3.3,-2.3 -1.4,-0.5 -2.8,-0.7 -4.2,-0.7 -1,0 -2,0.1 -2.9,0.4 -0.9,0.2 -1.8,0.6 -2.5,1.1 -0.7,0.5 -1.4,1.2 -1.8,2 -0.5,0.8 -0.7,1.8 -0.7,2.9 0,0.9 0.2,1.7 0.5,2.4 0.3,0.6 0.8,1.2 1.3,1.6 0.6,0.4 1.2,0.8 1.9,1 0.7,0.3 1.4,0.5 2.2,0.6 1.5,0.4 2.6,0.7 3.4,1.1 0.7,0.3 1.1,0.9 1.1,1.7 0,0.4 -0.1,0.8 -0.3,1.1 -0.2,0.3 -0.4,0.5 -0.7,0.7 -0.3,0.2 -0.6,0.3 -1,0.4 -0.4,0.1 -0.7,0.1 -1.1,0.1 -1,0 -2,-0.2 -2.9,-0.7 -0.9,-0.5 -1.6,-1 -2.1,-1.7 l -0.1,-0.1 -3.4,3.2 0.1,0.1 c 1,1 2.2,1.9 3.6,2.4 1.5,0.6 3,0.8 4.5,0.8 1.1,0 2.1,-0.1 3.1,-0.3 1,-0.2 1.9,-0.6 2.7,-1.1 0.8,-0.5 1.4,-1.2 1.8,-2.1 0.5,-0.8 0.7,-1.9 0.7,-3.1 0,-1 -0.2,-1.8 -0.6,-2.5 -0.4,-0.7 -0.9,-1.3 -1.5,-1.7 -0.6,-0.5 -1.3,-0.8 -2.1,-1.1 -0.8,-0.3 -1.5,-0.5 -2.2,-0.7 -1.4,-0.3 -2.4,-0.6 -3.2,-1 -0.7,-0.3 -1,-0.8 -1,-1.5 0,-0.8 0.3,-1.3 1,-1.6"
       id="path35"
       inkscape:connector-curvature="0"
       style="fill:#e60000" /><path
       class="st1"
       d="m 356.2,54.4 c 0.1,-1.3 0.7,-2.4 1.7,-3.3 1,-0.9 2.3,-1.3 3.7,-1.3 0.8,0 1.5,0.1 2,0.4 0.6,0.3 1.1,0.6 1.4,1 0.4,0.4 0.6,0.9 0.8,1.5 0.2,0.5 0.3,1.1 0.3,1.7 z m 12.3,-5.7 c -0.9,-0.9 -1.9,-1.6 -3.1,-2 -1.2,-0.5 -2.5,-0.7 -3.8,-0.7 -1.5,0 -2.9,0.3 -4.2,0.8 -1.3,0.5 -2.4,1.2 -3.3,2.2 -0.9,0.9 -1.7,2 -2.2,3.4 -0.5,1.3 -0.8,2.8 -0.8,4.4 0,1.6 0.3,3.1 0.8,4.4 0.5,1.3 1.3,2.4 2.2,3.3 0.9,0.9 2.1,1.6 3.4,2 1.3,0.5 2.7,0.7 4.3,0.7 3.7,0 6.6,-1.3 8.5,-4 l 0.1,-0.1 -3.4,-2.7 -0.1,0.1 c -0.5,0.8 -1.2,1.4 -2.1,1.8 -0.8,0.4 -1.9,0.7 -3.1,0.7 -0.7,0 -1.4,-0.1 -2,-0.4 -0.6,-0.2 -1.2,-0.6 -1.7,-1 -0.5,-0.4 -0.9,-0.9 -1.2,-1.5 -0.3,-0.5 -0.5,-1.2 -0.5,-1.8 h 15 v -0.1 c 0,-0.2 0,-0.4 0,-0.7 v -0.7 c 0,-1.8 -0.2,-3.4 -0.7,-4.7 -0.6,-1.4 -1.2,-2.5 -2.1,-3.4"
       id="path37"
       inkscape:connector-curvature="0"
       style="fill:#e60000" /><path
       class="st2"
       d="m 235.7,112.8 c -1.7,0 -3.2,0.6 -4.5,1.8 -1.2,1.2 -1.9,2.7 -1.9,4.4 0,0.8 0.2,1.6 0.5,2.4 0.3,0.7 0.8,1.4 1.4,1.9 0.6,0.5 1.3,1 2,1.3 0.8,0.3 1.6,0.5 2.4,0.5 1.7,0 3.2,-0.6 4.5,-1.8 1.2,-1.2 1.9,-2.7 1.9,-4.4 0,-1.7 -0.6,-3.1 -1.9,-4.3 -1.2,-1.2 -2.7,-1.8 -4.4,-1.8 m -19.5,-0.9 c -0.7,1.8 -1.7,3.4 -3,4.7 -1.3,1.3 -2.8,2.4 -4.5,3.1 -1.7,0.8 -3.6,1.1 -5.7,1.1 -2.2,0 -4.2,-0.4 -5.9,-1.1 -1.7,-0.8 -3.2,-1.8 -4.4,-3.2 -1.2,-1.4 -2.1,-2.9 -2.7,-4.8 -0.6,-1.8 -1,-3.8 -1,-5.8 0,-2.1 0.3,-4 1,-5.8 0.6,-1.8 1.5,-3.4 2.7,-4.8 1.2,-1.3 2.7,-2.4 4.4,-3.2 1.7,-0.8 3.7,-1.2 5.9,-1.2 2.1,0 4,0.4 5.7,1.1 1.7,0.8 3.2,1.8 4.5,3.2 1.3,1.3 2.3,2.9 3,4.8 0.7,1.8 1.1,3.8 1.1,5.9 0,2.2 -0.3,4.2 -1.1,6 m 0.5,-18 h -0.2 c -1.6,-2.4 -3.6,-4.3 -6.2,-5.5 -2.5,-1.2 -5.2,-1.9 -7.8,-1.9 -2.9,0 -5.5,0.5 -7.9,1.5 -2.4,1 -4.4,2.4 -6,4.1 -1.7,1.7 -3,3.8 -3.9,6.2 -0.9,2.4 -1.4,4.9 -1.4,7.7 0,2.8 0.5,5.3 1.4,7.7 0.9,2.4 2.2,4.4 3.9,6.2 1.7,1.7 3.7,3.1 6,4.1 2.4,1 5,1.5 7.9,1.5 2.7,0 5.3,-0.6 7.8,-1.8 2.5,-1.2 4.6,-3 6.2,-5.4 h 0.2 v 6.3 h 5.4 v -60 h -5.4 z M 174.1,69.4 c -1,0 -1.8,0.4 -2.6,1.1 -0.8,0.7 -1.2,1.6 -1.2,2.7 0,1.1 0.4,2 1.2,2.7 0.8,0.7 1.7,1.1 2.6,1.1 1,0 1.8,-0.4 2.6,-1.1 0.8,-0.7 1.2,-1.6 1.2,-2.7 0,-1.1 -0.4,-2 -1.2,-2.7 -0.8,-0.7 -1.7,-1.1 -2.6,-1.1 m 119.7,47.4 20.6,-21.9 v -8.4 h -30.9 v 7.6 h 19.6 l -20.5,22 v 8.4 h 32.8 v -7.8 H 293.8 Z M 258.2,97.2 c 0.9,-1.2 2,-2.1 3.3,-2.8 1.3,-0.7 2.9,-1.1 4.6,-1.1 1.5,0 3,0.4 4.5,1.1 1.5,0.7 2.6,1.6 3.3,2.7 l 6.5,-5.7 c -1.5,-1.8 -3.6,-3.3 -6.2,-4.4 -2.6,-1.1 -5.3,-1.6 -8.1,-1.6 -2.8,0 -5.4,0.5 -7.9,1.4 -2.5,1 -4.6,2.3 -6.5,4 -1.9,1.7 -3.3,3.9 -4.4,6.3 -1.1,2.5 -1.6,5.3 -1.6,8.3 0,3.2 0.5,6 1.6,8.5 1.1,2.5 2.6,4.6 4.4,6.3 1.9,1.7 4.1,3.1 6.6,4 2.5,0.9 5.2,1.3 8,1.3 2.9,0 5.5,-0.5 8,-1.4 2.5,-0.9 4.5,-2.2 6.1,-3.9 l -5.9,-6 c -0.9,1.1 -2.1,2 -3.6,2.5 -1.5,0.6 -3,0.9 -4.4,0.9 -1.8,0 -3.4,-0.4 -4.7,-1.1 -1.3,-0.7 -2.5,-1.7 -3.4,-2.8 -0.9,-1.2 -1.6,-2.5 -2,-3.9 -0.4,-1.5 -0.7,-2.9 -0.7,-4.4 0,-1.5 0.2,-2.9 0.6,-4.4 0.4,-1.3 1.1,-2.6 1.9,-3.8 m -86.8,27.4 h 5.4 V 87.5 h -5.4 z m -60.6,-14.7 c -0.5,1.5 -1.2,2.8 -2.2,3.9 -1,1.2 -2.2,2.1 -3.5,2.8 -1.4,0.7 -2.9,1.1 -4.7,1.1 -1.9,0 -3.5,-0.4 -4.8,-1.1 -1.4,-0.7 -2.5,-1.7 -3.4,-2.9 -0.9,-1.2 -1.6,-2.5 -2,-4 -0.5,-1.5 -0.7,-3 -0.7,-4.4 0,-1.5 0.2,-2.9 0.7,-4.4 0.4,-1.5 1.1,-2.8 2,-3.9 0.9,-1.2 2,-2.1 3.4,-2.8 1.4,-0.7 3,-1.1 4.8,-1.1 1.7,0 3.3,0.4 4.7,1.1 1.4,0.7 2.5,1.7 3.5,2.9 1,1.2 1.7,2.5 2.2,4 0.5,1.5 0.8,3 0.8,4.4 0,1.5 -0.3,3 -0.8,4.4 m 0.5,-18.6 H 111 c -0.5,-0.6 -1.1,-1.3 -1.8,-2 -0.7,-0.7 -1.6,-1.3 -2.7,-1.9 -1,-0.6 -2.2,-1.1 -3.6,-1.5 -1.4,-0.4 -2.9,-0.6 -4.7,-0.6 -2.7,0 -5.2,0.5 -7.5,1.5 -2.3,1 -4.2,2.4 -5.9,4.2 -1.6,1.8 -2.9,3.9 -3.8,6.3 -0.9,2.4 -1.3,5 -1.3,7.8 0,2.8 0.4,5.4 1.3,7.9 0.9,2.5 2.1,4.6 3.7,6.4 1.6,1.8 3.6,3.3 5.9,4.4 2.3,1.1 4.9,1.6 7.8,1.6 2.7,0 5.2,-0.6 7.6,-1.7 2.3,-1.2 4.2,-2.9 5.5,-5.1 h 0.2 v 5.7 h 9 V 64.6 h -9.5 v 26.7 z m 42.5,16.1 c 0,1.3 -0.2,2.5 -0.6,3.8 -0.4,1.2 -0.9,2.3 -1.6,3.3 -0.7,1 -1.6,1.7 -2.8,2.3 -1.1,0.6 -2.4,0.9 -3.9,0.9 -1.5,0 -2.8,-0.3 -3.7,-1 -0.9,-0.6 -1.7,-1.4 -2.2,-2.4 -0.5,-1 -0.9,-2.1 -1,-3.3 -0.2,-1.2 -0.2,-2.4 -0.2,-3.5 v -21 h -9.5 v 23.8 c 0,2 0.3,3.9 0.8,5.7 0.5,1.8 1.4,3.5 2.5,4.9 1.1,1.4 2.6,2.6 4.4,3.4 1.8,0.9 3.9,1.3 6.4,1.3 2.9,0 5.3,-0.7 7.4,-2.2 2.1,-1.5 3.6,-3.1 4.4,-5 h 0.2 v 6.1 h 9 v -38 h -9.5 v 20.9 z M 47.3,101.7 c 0.2,-2.7 1.3,-4.9 3.3,-6.6 2,-1.7 4.4,-2.6 7.3,-2.6 1.5,0 2.9,0.2 4,0.8 1.1,0.5 2.1,1.2 2.8,2 0.7,0.8 1.3,1.8 1.6,2.9 0.3,1.1 0.5,2.3 0.5,3.5 H 47.3 Z M 71.1,90.6 c -1.6,-1.7 -3.6,-3 -5.8,-3.9 -2.2,-0.9 -4.7,-1.3 -7.3,-1.3 -2.9,0 -5.5,0.5 -8,1.5 -2.5,1 -4.6,2.4 -6.4,4.1 -1.8,1.8 -3.2,3.9 -4.2,6.4 -1,2.5 -1.5,5.3 -1.5,8.4 0,3.1 0.5,5.9 1.5,8.4 1,2.5 2.5,4.5 4.3,6.2 1.8,1.7 4,3 6.5,3.9 2.5,0.9 5.2,1.4 8.2,1.4 7.1,0 12.6,-2.5 16.3,-7.6 L 68.4,113 c -1.1,1.5 -2.4,2.7 -4,3.6 -1.6,0.9 -3.6,1.3 -6,1.3 -1.4,0 -2.7,-0.2 -4,-0.7 -1.3,-0.5 -2.4,-1.1 -3.4,-1.9 -1,-0.8 -1.8,-1.8 -2.4,-2.9 -0.6,-1.1 -1,-2.4 -1.1,-3.8 h 28.9 c 0.1,-0.4 0.1,-0.8 0.1,-1.3 V 106 c 0,-3.4 -0.5,-6.4 -1.4,-9 -1.1,-2.5 -2.4,-4.7 -4,-6.4"
       id="path39"
       inkscape:connector-curvature="0"
       style="fill:#5a5a5a" /></g><g
     id="Protection_Zone"
     transform="translate(0,-131.10001)"><rect
       y="160"
       class="st0"
       width="40.799999"
       height="40.799999"
       id="rect4"
       x="0"
       style="fill:none" /><rect
       x="386"
       y="160"
       class="st0"
       width="40.799999"
       height="40.799999"
       id="rect6"
       style="fill:none" /><rect
       x="386"
       y="0.30000001"
       class="st0"
       width="40.799999"
       height="40.799999"
       id="rect8"
       style="fill:none" /><rect
       y="0.30000001"
       class="st0"
       width="40.799999"
       height="40.799999"
       id="rect10"
       x="0"
       style="fill:none" /></g></svg>