<?xml version="1.0" encoding="UTF-8" standalone="no"?>
<svg
   xmlns:dc="http://purl.org/dc/elements/1.1/"
   xmlns:cc="http://creativecommons.org/ns#"
   xmlns:rdf="http://www.w3.org/1999/02/22-rdf-syntax-ns#"
   xmlns:svg="http://www.w3.org/2000/svg"
   xmlns="http://www.w3.org/2000/svg"
   xmlns:sodipodi="http://sodipodi.sourceforge.net/DTD/sodipodi-0.dtd"
   xmlns:inkscape="http://www.inkscape.org/namespaces/inkscape"
   sodipodi:docname="ikona_type-trial-access_v2.svg"
   inkscape:version="1.0 (4035a4fb49, 2020-05-01)"
   id="svg8"
   version="1.1"
   viewBox="0 0 26.458333 34.395834"
   height="130"
   width="100">
  <defs
     id="defs2" />
  <sodipodi:namedview
     inkscape:document-rotation="0"
     inkscape:window-maximized="1"
     inkscape:window-y="-12"
     inkscape:window-x="-12"
     inkscape:window-height="2050"
     inkscape:window-width="3840"
     units="px"
     showgrid="false"
     inkscape:current-layer="layer1"
     inkscape:document-units="mm"
     inkscape:cy="0.057720857"
     inkscape:cx="-320.71428"
     inkscape:zoom="2.8"
     inkscape:pageshadow="2"
     inkscape:pageopacity="0.0"
     borderopacity="1.0"
     bordercolor="#666666"
     pagecolor="#ffffff"
     id="base" />
  <metadata
     id="metadata5">
    <rdf:RDF>
      <cc:Work
         rdf:about="">
        <dc:format>image/svg+xml</dc:format>
        <dc:type
           rdf:resource="http://purl.org/dc/dcmitype/StillImage" />
        <dc:title></dc:title>
      </cc:Work>
    </rdf:RDF>
  </metadata>
  <g
     transform="translate(0,-262.60415)"
     id="layer1"
     inkscape:groupmode="layer"
     inkscape:label="Vrstva 1">
    <g
       transform="translate(-0.27757783,-0.01527005)"
       id="g929">
      <g
         transform="matrix(0.82682292,0,0,0.82682292,3.171458,266.58817)"
         id="g937"
         style="fill:#46505a">
        <g
           id="g924">
          <path
             inkscape:connector-curvature="0"
             d="M 18.629,1.629 C 18.357,1.357 17.945,1.275 17.589,1.422 17.232,1.57 17,1.918 17,2.304 V 7.046 C 17,7.573 17.428,8 17.954,8 h 4.742 c 0.386,0 0.733,-0.232 0.882,-0.589 0.147,-0.357 0.065,-0.768 -0.207,-1.04 z"
             id="path920" />
          <path
             inkscape:connector-curvature="0"
             d="M 16.922,10 C 15.86,10 15,9.14 15,8.078 V 0.954 C 15,0.427 14.572,0 14.046,0 H 2.965 C 1.327,0 0,1.327 0,2.965 v 26.07 C 0,30.673 1.327,32 2.965,32 h 19.07 C 23.673,32 25,30.673 25,29.035 V 10.954 C 25,10.427 24.572,10 24.046,10 Z"
             id="path922" />
        </g>
      </g>
      <g
         transform="matrix(0.24573967,0,0,0.24573967,5.190885,275.51373)"
         id="g956"
         style="fill:#ffffff">
        <path
           inkscape:connector-curvature="0"
           d="m 39.026672,18.748169 v -0.304077 c 0,-0.415406 -0.333801,-0.741761 -0.741699,-0.741761 H 21.707642 c -0.407959,0 -0.741761,0.326355 -0.741761,0.741761 v 0.304077 c 0,4.976868 4.049805,9.026672 9.034119,9.026672 4.976868,0 9.026672,-4.049804 9.026672,-9.026672 z"
           id="path939" />
        <path
           inkscape:connector-curvature="0"
           d="m 17.999023,41.259216 v 2.536621 c -1.283142,0.02972 -2.314148,1.082947 -2.314148,2.373536 0,1.305419 1.068116,2.373474 2.373536,2.373474 h 23.875793 c 1.312805,0 2.380921,-1.068055 2.380921,-2.373474 0,-1.290589 -1.038453,-2.343811 -2.321595,-2.373536 v -2.536621 c 0,-5.169739 -3.293213,-9.5755 -7.884399,-11.259216 4.591186,-1.683716 7.884399,-6.082092 7.884399,-11.251831 v -2.536682 c 1.283142,-0.03705 2.321595,-1.082886 2.321595,-2.373413 0,-1.312867 -1.068116,-2.380921 -2.380921,-2.380921 H 18.058411 c -1.30542,0 -2.373536,1.068054 -2.373536,2.380921 0,1.290527 1.031006,2.336364 2.314148,2.373413 v 2.536682 c 0,5.169739 3.293213,9.568115 7.884461,11.251831 -4.591248,1.683716 -7.884461,6.089477 -7.884461,11.259216 z m 1.48346,-22.511047 v -2.529236 h 21.027588 v 2.529236 c 0,5.800232 -4.717285,10.510132 -10.510071,10.510132 -5.800232,0 -10.517517,-4.7099 -10.517517,-10.510132 z M 30,30.741699 c 5.792786,0 10.510071,4.717285 10.510071,10.517517 v 2.529236 H 19.482483 v -2.529236 c 0,-5.800232 4.717285,-10.517517 10.517517,-10.517517 z"
           id="path941" />
        <path
           inkscape:connector-curvature="0"
           d="m 21.707642,42.305054 h 16.577331 c 0.407898,0 0.741699,-0.333802 0.741699,-0.741699 v -0.304139 c 0,-4.984314 -4.049804,-9.034118 -9.026672,-9.034118 -4.984314,0 -9.034119,4.049804 -9.034119,9.034118 v 0.304139 c 0,0.407897 0.333802,0.741699 0.741761,0.741699 z"
           id="path943" />
      </g>
      <g
         transform="matrix(0.82682292,0,0,0.82682292,3.171458,266.58817)"
         id="g4526"
         style="fill:#46505a">
        <g
           id="g4513">
          <path
             style="fill:#9b0528;fill-opacity:1"
             inkscape:connector-curvature="0"
             d="M 18.629,1.629 C 18.357,1.357 17.945,1.275 17.589,1.422 17.232,1.57 17,1.918 17,2.304 V 7.046 C 17,7.573 17.428,8 17.954,8 h 4.742 c 0.386,0 0.733,-0.232 0.882,-0.589 0.147,-0.357 0.065,-0.768 -0.207,-1.04 z"
             id="path4509" />
          <path
             style="fill:#9b0528;fill-opacity:1"
             inkscape:connector-curvature="0"
             d="M 16.922,10 C 15.86,10 15,9.14 15,8.078 V 0.954 C 15,0.427 14.572,0 14.046,0 H 2.965 C 1.327,0 0,1.327 0,2.965 v 26.07 C 0,30.673 1.327,32 2.965,32 h 19.07 C 23.673,32 25,30.673 25,29.035 V 10.954 C 25,10.427 24.572,10 24.046,10 Z"
             id="path4511" />
        </g>
      </g>
      <g
         transform="matrix(0.09701389,0,0,0.09701389,5.528878,263.65395)"
         id="g4563"
         style="fill:#ffffff">
        <path
           inkscape:connector-curvature="0"
           d="m 110.346,172.863 2.864,-2.864 c 1.562,-1.562 1.562,-4.036 0,-5.599 l -5.729,-5.859 c -1.562,-1.562 -4.167,-1.562 -5.729,0 l -2.734,2.864 c -1.433,1.433 -1.562,3.646 -0.391,5.208 l -3.255,3.125 c -6.12,-4.947 -13.672,-8.203 -21.875,-9.114 v -4.427 c 1.953,-0.261 3.385,-1.953 3.385,-3.906 v -3.256 c 0,-2.213 -1.822,-4.036 -4.036,-4.036 h -8.203 c -2.083,0 -3.906,1.823 -3.906,4.036 v 3.256 c 0,1.953 1.433,3.646 3.386,3.906 v 4.557 c -21.225,2.344 -37.5,20.183 -37.5,41.928 0,23.307 18.88,42.317 42.318,42.317 23.308,0 42.317,-19.011 42.317,-42.317 0,-9.896 -3.516,-19.011 -9.244,-26.303 l 3.255,-3.125 c 1.561,1.042 3.775,0.912 5.077,-0.391 z m -41.407,62.761 c -18.229,0 -32.943,-14.714 -32.943,-32.942 0,-18.229 14.713,-32.943 32.943,-32.943 18.23,0 32.942,14.714 32.942,32.943 0.001,18.228 -14.712,32.942 -32.942,32.942 z"
           id="path4528" />
        <path
           inkscape:connector-curvature="0"
           d="m 46.413,202.551 c 0,1.303 -1.172,2.475 -2.474,2.475 -1.302,0 -2.474,-1.172 -2.474,-2.475 0,-1.302 1.172,-2.474 2.474,-2.474 1.302,0 2.474,1.172 2.474,2.474 z"
           id="path4530" />
        <path
           inkscape:connector-curvature="0"
           d="m 49.017,185.363 c 0,-1.302 1.172,-2.474 2.474,-2.474 1.302,0 2.474,1.172 2.474,2.474 0,1.303 -1.172,2.475 -2.474,2.475 -1.302,0 -2.474,-1.172 -2.474,-2.475 z"
           id="path4532" />
        <path
           inkscape:connector-curvature="0"
           d="m 49.147,220.52 c 0,-1.302 1.172,-2.474 2.474,-2.474 1.303,0 2.475,1.172 2.475,2.474 0,1.303 -1.172,2.475 -2.475,2.475 -1.302,-0.001 -2.474,-1.173 -2.474,-2.475 z"
           id="path4534" />
        <path
           inkscape:connector-curvature="0"
           d="m 71.283,193.566 1.692,0.651 14.975,-12.63 1.692,1.692 -12.37,15.364 c 0.912,1.953 1.172,4.297 0.651,6.511 -1.433,4.948 -6.511,7.942 -11.589,6.641 -4.947,-1.433 -7.942,-6.511 -6.641,-11.589 1.434,-4.946 6.512,-7.941 11.59,-6.64 z"
           id="path4536" />
        <path
           inkscape:connector-curvature="0"
           d="m 66.466,177.941 c 0,-1.302 1.172,-2.474 2.474,-2.474 1.302,0 2.474,1.172 2.474,2.474 0,1.303 -1.172,2.475 -2.474,2.475 -1.302,0 -2.474,-1.172 -2.474,-2.475 z"
           id="path4538" />
        <path
           inkscape:connector-curvature="0"
           d="m 66.466,227.812 c 0,-1.302 1.172,-2.474 2.474,-2.474 1.302,0 2.474,1.172 2.474,2.474 0,1.302 -1.172,2.474 -2.474,2.474 -1.302,0 -2.474,-1.173 -2.474,-2.474 z"
           id="path4540" />
        <path
           inkscape:connector-curvature="0"
           d="m 84.044,220.39 c 0,-1.302 1.172,-2.474 2.474,-2.474 1.302,0 2.474,1.172 2.474,2.474 0,1.302 -1.172,2.474 -2.474,2.474 -1.302,0 -2.474,-1.173 -2.474,-2.474 z"
           id="path4542" />
        <path
           inkscape:connector-curvature="0"
           d="m 91.596,203.072 c 0,-1.303 1.172,-2.475 2.474,-2.475 1.303,0 2.475,1.172 2.475,2.475 0,1.302 -1.172,2.474 -2.475,2.474 -1.302,0 -2.474,-1.172 -2.474,-2.474 z"
           id="path4544" />
      </g>
    </g>
  </g>
</svg>
