<?xml version="1.0" encoding="UTF-8" standalone="no"?>
<svg
   xmlns:dc="http://purl.org/dc/elements/1.1/"
   xmlns:cc="http://creativecommons.org/ns#"
   xmlns:rdf="http://www.w3.org/1999/02/22-rdf-syntax-ns#"
   xmlns:svg="http://www.w3.org/2000/svg"
   xmlns="http://www.w3.org/2000/svg"
   xmlns:sodipodi="http://sodipodi.sourceforge.net/DTD/sodipodi-0.dtd"
   xmlns:inkscape="http://www.inkscape.org/namespaces/inkscape"
   height="100px"
   width="100px"
   fill="#46505a"
   data-name="Layer 1"
   viewBox="0 0 100 100"
   x="0px"
   y="0px"
   version="1.1"
   id="svg16"
   sodipodi:docname="ikona_trial-access.svg"
   inkscape:version="0.92.2 (5c3e80d, 2017-08-06)">
  <metadata
     id="metadata22">
    <rdf:RDF>
      <cc:Work
         rdf:about="">
        <dc:format>image/svg+xml</dc:format>
        <dc:type
           rdf:resource="http://purl.org/dc/dcmitype/StillImage" />
        <dc:title>People</dc:title>
      </cc:Work>
    </rdf:RDF>
  </metadata>
  <defs
     id="defs20" />
  <sodipodi:namedview
     pagecolor="#ffffff"
     bordercolor="#666666"
     borderopacity="1"
     objecttolerance="10"
     gridtolerance="10"
     guidetolerance="10"
     inkscape:pageopacity="0"
     inkscape:pageshadow="2"
     inkscape:window-width="1920"
     inkscape:window-height="1001"
     id="namedview18"
     showgrid="false"
     inkscape:zoom="2.36"
     inkscape:cx="75.211864"
     inkscape:cy="50"
     inkscape:window-x="-9"
     inkscape:window-y="-9"
     inkscape:window-maximized="1"
     inkscape:current-layer="svg16" />
  <title
     id="title2">People</title>
  <g
     style="fill:#46505a"
     id="g937"
     transform="matrix(2.8125,0,0,2.8125,14.84375,5)">
    <g
       id="g924">
      <path
         id="path920"
         d="M 18.629,1.629 C 18.357,1.357 17.945,1.275 17.589,1.422 17.232,1.57 17,1.918 17,2.304 V 7.046 C 17,7.573 17.428,8 17.954,8 h 4.742 c 0.386,0 0.733,-0.232 0.882,-0.589 0.147,-0.357 0.065,-0.768 -0.207,-1.04 z"
         inkscape:connector-curvature="0" />
      <path
         id="path922"
         d="M 16.922,10 C 15.86,10 15,9.14 15,8.078 V 0.954 C 15,0.427 14.572,0 14.046,0 H 2.965 C 1.327,0 0,1.327 0,2.965 v 26.07 C 0,30.673 1.327,32 2.965,32 h 19.07 C 23.673,32 25,30.673 25,29.035 V 10.954 C 25,10.427 24.572,10 24.046,10 Z"
         inkscape:connector-curvature="0" />
    </g>
  </g>
  <g
     style="fill:#ffffff"
     id="g956"
     transform="matrix(0.83590184,0,0,0.83590184,21.712984,35.360945)">
    <path
       id="path939"
       d="m 39.026672,18.748169 v -0.304077 c 0,-0.415406 -0.333801,-0.741761 -0.741699,-0.741761 H 21.707642 c -0.407959,0 -0.741761,0.326355 -0.741761,0.741761 v 0.304077 c 0,4.976868 4.049805,9.026672 9.034119,9.026672 4.976868,0 9.026672,-4.049804 9.026672,-9.026672 z"
       inkscape:connector-curvature="0" />
    <path
       id="path941"
       d="m 17.999023,41.259216 v 2.536621 c -1.283142,0.02972 -2.314148,1.082947 -2.314148,2.373536 0,1.305419 1.068116,2.373474 2.373536,2.373474 h 23.875793 c 1.312805,0 2.380921,-1.068055 2.380921,-2.373474 0,-1.290589 -1.038453,-2.343811 -2.321595,-2.373536 v -2.536621 c 0,-5.169739 -3.293213,-9.5755 -7.884399,-11.259216 4.591186,-1.683716 7.884399,-6.082092 7.884399,-11.251831 v -2.536682 c 1.283142,-0.03705 2.321595,-1.082886 2.321595,-2.373413 0,-1.312867 -1.068116,-2.380921 -2.380921,-2.380921 H 18.058411 c -1.30542,0 -2.373536,1.068054 -2.373536,2.380921 0,1.290527 1.031006,2.336364 2.314148,2.373413 v 2.536682 c 0,5.169739 3.293213,9.568115 7.884461,11.251831 -4.591248,1.683716 -7.884461,6.089477 -7.884461,11.259216 z m 1.48346,-22.511047 v -2.529236 h 21.027588 v 2.529236 c 0,5.800232 -4.717285,10.510132 -10.510071,10.510132 -5.800232,0 -10.517517,-4.7099 -10.517517,-10.510132 z M 30,30.741699 c 5.792786,0 10.510071,4.717285 10.510071,10.517517 v 2.529236 H 19.482483 v -2.529236 c 0,-5.800232 4.717285,-10.517517 10.517517,-10.517517 z"
       inkscape:connector-curvature="0" />
    <path
       id="path943"
       d="m 21.707642,42.305054 h 16.577331 c 0.407898,0 0.741699,-0.333802 0.741699,-0.741699 v -0.304139 c 0,-4.984314 -4.049804,-9.034118 -9.026672,-9.034118 -4.984314,0 -9.034119,4.049804 -9.034119,9.034118 v 0.304139 c 0,0.407897 0.333802,0.741699 0.741761,0.741699 z"
       inkscape:connector-curvature="0" />
  </g>
</svg>
