<?xml version="1.0" encoding="UTF-8" standalone="no"?>
<svg
   xmlns:dc="http://purl.org/dc/elements/1.1/"
   xmlns:cc="http://creativecommons.org/ns#"
   xmlns:rdf="http://www.w3.org/1999/02/22-rdf-syntax-ns#"
   xmlns:svg="http://www.w3.org/2000/svg"
   xmlns="http://www.w3.org/2000/svg"
   xmlns:sodipodi="http://sodipodi.sourceforge.net/DTD/sodipodi-0.dtd"
   xmlns:inkscape="http://www.inkscape.org/namespaces/inkscape"
   inkscape:version="0.92.2 (5c3e80d, 2017-08-06)"
   sodipodi:docname="ikona_utb-systems_v2.svg"
   id="svg16"
   version="1.1"
   y="0px"
   x="0px"
   viewBox="0 0 100 100"
   data-name="Layer 1"
   fill="#46505a"
   width="100px"
   height="100px">
  <metadata
     id="metadata22">
    <rdf:RDF>
      <cc:Work
         rdf:about="">
        <dc:format>image/svg+xml</dc:format>
        <dc:type
           rdf:resource="http://purl.org/dc/dcmitype/StillImage" />
        <dc:title>People</dc:title>
      </cc:Work>
    </rdf:RDF>
  </metadata>
  <defs
     id="defs20" />
  <sodipodi:namedview
     inkscape:document-rotation="0"
     inkscape:current-layer="svg16"
     inkscape:window-maximized="1"
     inkscape:window-y="-9"
     inkscape:window-x="-9"
     inkscape:cy="-17.79661"
     inkscape:cx="-69.491525"
     inkscape:zoom="2.36"
     showgrid="false"
     id="namedview18"
     inkscape:window-height="1001"
     inkscape:window-width="1920"
     inkscape:pageshadow="2"
     inkscape:pageopacity="0"
     guidetolerance="10"
     gridtolerance="10"
     objecttolerance="10"
     borderopacity="1"
     bordercolor="#666666"
     pagecolor="#ffffff" />
  <title
     id="title2">People</title>
  <g
     id="g854"
     transform="translate(216.61811,-175.33898)">
    <g
       style="fill:#46505a;fill-opacity:1"
       id="g4513"
       transform="matrix(2.8125,0,0,2.8125,-201.77436,180.33898)">
      <path
         id="path4509"
         d="M 18.629,1.629 C 18.357,1.357 17.945,1.275 17.589,1.422 17.232,1.57 17,1.918 17,2.304 V 7.046 C 17,7.573 17.428,8 17.954,8 h 4.742 c 0.386,0 0.733,-0.232 0.882,-0.589 0.147,-0.357 0.065,-0.768 -0.207,-1.04 z"
         inkscape:connector-curvature="0"
         style="fill:#46505a;fill-opacity:1" />
      <path
         id="path4511"
         d="M 16.922,10 C 15.86,10 15,9.14 15,8.078 V 0.954 C 15,0.427 14.572,0 14.046,0 H 2.965 C 1.327,0 0,1.327 0,2.965 v 26.07 C 0,30.673 1.327,32 2.965,32 h 19.07 C 23.673,32 25,30.673 25,29.035 V 10.954 C 25,10.427 24.572,10 24.046,10 Z"
         inkscape:connector-curvature="0"
         style="fill:#46505a;fill-opacity:1" />
    </g>
    <g
       style="fill:#ffffff;fill-opacity:1"
       transform="matrix(2.2160901,0,0,2.2160901,-181.00608,217.96866)"
       data-name="Vrstva 2"
       id="Vrstva_2">
      <g
         style="fill:#ffffff;fill-opacity:1"
         id="content">
        <polygon
           style="fill:#ffffff;fill-opacity:1"
           id="polygon8"
           points="0,0 0,2.87 8.42,0.03 8.42,0 "
           class="cls-1" />
        <path
           style="fill:#ffffff;fill-opacity:1"
           id="path10"
           d="m 0,14.23 c 0,0.74 0.68,1.14 1.49,1.14 A 2.71,2.71 0 0 0 2.31,15.23 L 10.42,12.4 V 1.12 L 2.32,4 A 2.59,2.59 0 0 1 1.51,4.13 C 0.71,4.08 0,3.71 0,3.29 v 0 z"
           class="cls-1"
           inkscape:connector-curvature="0" />
      </g>
    </g>
  </g>
</svg>
